# xmcd
#
# Track frame offsets:
#	150
#	13202
#	24464
#	42571
#	48392
#	62593
#	73925
#	85895
#	104278
#	116954
#	129554
#	146335
# Disc length: 3718 seconds
# Revision: 1
# Processed by: cddbd v1.5.1PL2 Copyright (c) Steve Scherf et al.
#
# Submitted via: libkcddb 0.21
#
DISCID=ae0e840c
DTITLE=t - t
DYEAR=1900
DGENRE=Black Metal
TTITLE0=t
TTITLE1=d
TTITLE2=r
TTITLE3=h
TTITLE4=x
TTITLE5=tr
TTITLE6=g
TTITLE7=j
TTITLE8=l
TTITLE9=o
TTITLE10=p
TTITLE11=y
EXTD=
EXTT0=
EXTT1=
EXTT2=
EXTT3=
EXTT4=
EXTT5=
EXTT6=
EXTT7=
EXTT8=
EXTT9=
EXTT10=
EXTT11=
PLAYORDER=
